<?xml version="1.0" encoding="utf-8"?>
<!-- Generator: Adobe Illustrator 19.0.1, SVG Export Plug-In . SVG Version: 6.00 Build 0)  -->
<svg version="1.1" id="Capa_1" xmlns="http://www.w3.org/2000/svg" xmlns:xlink="http://www.w3.org/1999/xlink" x="0px" y="0px"
	 viewBox="-131 536.3 34.4 34.3" style="enable-background:new -131 536.3 34.4 34.3;" xml:space="preserve">
<g>
	<g>
		<g>
			<path d="M-97.4,563.4l-5.3-5.3c-1.1-1.1-2.8-1-3.9,0.1l-2.7,2.7c-0.2-0.1-0.3-0.2-0.5-0.3c-1.7-0.9-4-2.2-6.4-4.7
				c-2.4-2.4-3.7-4.8-4.7-6.4c-0.1-0.2-0.2-0.4-0.3-0.5l1.8-1.8l0.9-0.9c1.1-1.1,1.1-2.8,0.1-3.9l-5.3-5.3c-1.1-1.1-2.8-1-3.9,0.1
				l-1.5,1.5l0,0c-0.5,0.6-0.9,1.4-1.2,2.2c-0.3,0.8-0.5,1.5-0.5,2.2c-0.7,5.8,2,11.1,9.2,18.3c10,10,18,9.2,18.3,9.2
				c0.8-0.1,1.5-0.3,2.2-0.6c0.8-0.3,1.5-0.7,2.2-1.2l0,0l1.5-1.5C-96.4,566.2-96.3,564.5-97.4,563.4z"/>
		</g>
	</g>
</g>
</svg>
