<?xml version="1.0" encoding="utf-8"?>
<!-- Generator: Adobe Illustrator 19.0.1, SVG Export Plug-In . SVG Version: 6.00 Build 0)  -->
<svg version="1.1" id="Layer_1" xmlns="http://www.w3.org/2000/svg" xmlns:xlink="http://www.w3.org/1999/xlink" x="0px" y="0px"
	 viewBox="0 0 412 320" style="enable-background:new 0 0 412 320;" xml:space="preserve">
<style type="text/css">
	.st0{clip-path:url(#SVGID_2_);}
</style>
<g>
	<defs>
		<rect id="SVGID_1_" width="412" height="320"/>
	</defs>
	<clipPath id="SVGID_2_">
		<use xlink:href="#SVGID_1_"  style="overflow:visible;"/>
	</clipPath>
	<path class="st0" d="M391.8,252.6L216.7,133.7v-15c0.1,0,0.2-0.1,0.3-0.1c35.5-8.8,59.3-30.9,59.3-59.3C276.2,26.5,249.7,0,217,0
		c-30.2,0-56.5,22.1-59.1,51.8c-0.1,0.5-0.1,0.9-0.1,1.4c0,0.1,0,0.1,0,0.2c0,5.9,4.8,10.7,10.7,10.7c5.9,0,10.7-4.8,10.7-10.7h0.1
		c0.9-9.2,5.3-15.8,9.3-20c7.3-7.6,17.7-12,28.6-12c20.9,0,37.9,17,37.9,37.9c0,8-3.3,15.3-9.9,21.8c-7.7,7.5-19.2,13.4-33.1,16.8
		c0,0-16.2,5-16.5,5.1v3.7h0v27L20.2,252.6C8.1,258.8,0,270.5,0,283.9C0,303.8,18,320,40.2,320h1.2h329.1h1.2
		c22.2,0,40.2-16.2,40.2-36.1C412,270.5,403.9,258.8,391.8,252.6 M371.8,298.7h-1.2H41.4h-1.2c-10.2,0-18.9-6.8-18.9-14.8
		c0-4.9,3.2-9.6,8.7-12.4l0.1,0l0.1-0.1L206,152.1l175.8,119.3l0.1,0.1l0.1,0c5.4,2.8,8.7,7.4,8.7,12.4
		C390.7,291.9,382,298.7,371.8,298.7"/>
</g>
</svg>
