<?xml version="1.0" encoding="utf-8"?>
<!-- Generator: Adobe Illustrator 19.0.1, SVG Export Plug-In . SVG Version: 6.00 Build 0)  -->
<svg version="1.1" id="Layer_1" xmlns="http://www.w3.org/2000/svg" xmlns:xlink="http://www.w3.org/1999/xlink" x="0px" y="0px"
	 viewBox="-99 237 412 320" style="enable-background:new -99 237 412 320;" xml:space="preserve">
<style type="text/css">
	.st0{fill:#FFFFFF;}
</style>
<g>
	<g>
		<path class="st0" d="M292.8,489.6L117.7,370.7v-15c0.1,0,0.2-0.1,0.3-0.1c35.5-8.8,59.3-30.9,59.3-59.3
			c-0.1-32.8-26.6-59.3-59.3-59.3c-30.2,0-56.5,22.1-59.1,51.8c-0.1,0.5-0.1,0.9-0.1,1.4c0,0.1,0,0.1,0,0.2
			c0,5.9,4.8,10.7,10.7,10.7s10.7-4.8,10.7-10.7h0.1c0.9-9.2,5.3-15.8,9.3-20c7.3-7.6,17.7-12,28.6-12c20.9,0,37.9,17,37.9,37.9
			c0,8-3.3,15.3-9.9,21.8c-7.7,7.5-19.2,13.4-33.1,16.8c0,0-16.2,5-16.5,5.1v3.7l0,0v27L-78.8,489.6c-12.1,6.2-20.2,17.9-20.2,31.3
			c0,19.9,18,36.1,40.2,36.1h1.2h329.1h1.2c22.2,0,40.2-16.2,40.2-36.1C313,507.5,304.9,495.8,292.8,489.6 M272.8,535.7h-1.2H-57.6
			h-1.2c-10.2,0-18.9-6.8-18.9-14.8c0-4.9,3.2-9.6,8.7-12.4h0.1l0.1-0.1L107,389.1l175.8,119.3l0.1,0.1h0.1
			c5.4,2.8,8.7,7.4,8.7,12.4C291.7,528.9,283,535.7,272.8,535.7"/>
	</g>
</g>
</svg>
