<svg xmlns="http://www.w3.org/2000/svg" viewBox="0 0 551.03 551.03"><defs><style>.cls-1{fill:#dbbeb6;}</style></defs><title>Ресурс 1</title><g id="Слой_2" data-name="Слой 2"><g id="Layer_1" data-name="Layer 1"><path class="cls-1" d="M386.88,0H164.16C73.64,0,0,73.64,0,164.16V386.88C0,477.39,73.64,551,164.16,551H386.88C477.39,551,551,477.39,551,386.88V164.16C551,73.64,477.39,0,386.88,0Zm0,495.6H164.16A108.73,108.73,0,0,1,55.43,386.88V164.16A108.73,108.73,0,0,1,164.16,55.43H386.88A108.73,108.73,0,0,1,495.6,164.16V386.88A108.73,108.73,0,0,1,386.88,495.6Z"/><path class="cls-1" d="M275.52,133C196.93,133,133,196.93,133,275.52S196.93,418,275.52,418,418,354.1,418,275.52,354.1,133,275.52,133Zm0,229.6a87.09,87.09,0,1,1,87.08-87.08A87.09,87.09,0,0,1,275.52,362.6Z"/><circle class="cls-1" cx="418.31" cy="134.07" r="34.15"/></g></g></svg>