<?xml version="1.0" encoding="utf-8"?>
<!-- Generator: Adobe Illustrator 19.0.1, SVG Export Plug-In . SVG Version: 6.00 Build 0)  -->
<svg version="1.1" id="Layer_1" xmlns="http://www.w3.org/2000/svg" xmlns:xlink="http://www.w3.org/1999/xlink" x="0px" y="0px"
	 viewBox="0 0 490 490" style="enable-background:new 0 0 490 490;" xml:space="preserve">
<style type="text/css">
	.st0{clip-path:url(#SVGID_2_);}
</style>
<g>
	<defs>
		<rect id="SVGID_1_" width="490" height="490"/>
	</defs>
	<clipPath id="SVGID_2_">
		<use xlink:href="#SVGID_1_"  style="overflow:visible;"/>
	</clipPath>
	<path class="st0" d="M484,455.2L366.2,337.4c29.2-35.6,46.8-81.2,46.8-130.9C413,92.5,320.5,0,206.5,0C92.4,0,0,92.5,0,206.5
		S92.4,413,206.5,413c49.7,0,95.2-17.5,130.8-46.7L455.1,484c8,8,20.9,8,28.9,0C492,476.1,492,463.1,484,455.2 M206.5,371.9
		C115.2,371.9,41,297.7,41,206.5C41,115.3,115.2,41,206.5,41C297.7,41,372,115.3,372,206.5C372,297.7,297.7,371.9,206.5,371.9"/>
</g>
</svg>
