<?xml version="1.0" encoding="utf-8"?>
<!-- Generator: Adobe Illustrator 24.1.2, SVG Export Plug-In . SVG Version: 6.00 Build 0)  -->
<svg version="1.1" id="Capa_1" xmlns="http://www.w3.org/2000/svg" xmlns:xlink="http://www.w3.org/1999/xlink" x="0px" y="0px"
	 viewBox="0 0 512 512" style="enable-background:new 0 0 512 512;" xml:space="preserve">
<style type="text/css">
	.st0{fill:#FFFFFF;}
</style>
<g>
	<g>
		<g>
			<path class="st0" d="M304.8,0h-97.5C105.1,0,22,83.1,22,185.2v87.9c0,76.1,46.7,144.4,117,172.2v57c0,3.9,2.3,7.4,5.8,8.9
				c1.3,0.6,2.6,0.8,3.9,0.8c2.4,0,4.7-0.9,6.5-2.5l56.5-51.2h92.9c102.1,0,185.2-83.1,185.2-185.2v-87.9C490,83.1,406.9,0,304.8,0z
				 M470.5,273.1c0,91.4-74.3,165.7-165.7,165.7h-96.7c-2.4,0-4.7,0.9-6.5,2.5l-43,39v-41.7c0-4.1-2.6-7.8-6.5-9.2
				C85.9,406,41.5,343.2,41.5,273.1v-87.9c0-91.4,74.4-165.7,165.7-165.7h97.5c91.4,0,165.7,74.3,165.7,165.7V273.1z"/>
			<path class="st0" d="M384.9,297.3l-59.9-38.9c-6.6-4.3-14.4-5.7-22-4.1c-7.6,1.6-14.2,6.1-18.5,12.7l-2.8,4.3
				c-25.9-8.6-54.5-19.5-71.7-69.1l7.1-6.2l0,0c12.2-10.6,13.4-29.1,2.9-41.3l-46.9-53.9c-3.5-4.1-9.7-4.5-13.8-1l-29.4,25.6
				c-25.8,22.4-13.8,55.6-9.8,66.6c0.2,0.5,0.4,1,0.6,1.4c1,1.8,25.5,45.5,64.9,85.7c39.6,40.4,111.2,77.7,113.4,78.7
				c8.2,5.3,17.4,7.8,26.5,7.8c16,0,31.6-7.8,41-22.2l21.2-32.7C390.7,306.3,389.4,300.3,384.9,297.3z M350.1,332.9
				c-8.8,13.5-26.9,17.4-41.3,8.1c-0.7-0.4-71.8-37.4-109.3-75.6c-35-35.7-58.3-75.3-61.4-80.8c-7.7-21.7-6.4-35,4.5-44.4l22.1-19.2
				l40.5,46.6c3.6,4.1,3.2,10.2-0.9,13.8l-12,10.4c-2.9,2.5-4.1,6.5-2.9,10.2c20.4,66.3,60.1,79.3,89,88.8l4.2,1.4
				c4.2,1.4,8.8-0.2,11.3-3.9l6.9-10.6c1.4-2.2,3.6-3.7,6.1-4.2c2.5-0.5,5.1,0,7.3,1.4l51.8,33.6L350.1,332.9z"/>
			<path class="st0" d="M278.3,158.4c-5.2-1.5-10.6,1.5-12.1,6.7c-1.5,5.2,1.5,10.6,6.7,12c14.5,4.1,26.1,15.7,30.2,30.3
				c1.2,4.3,5.1,7.1,9.4,7.1c0.9,0,1.8-0.1,2.7-0.4c5.2-1.5,8.2-6.8,6.7-12C316,181.1,299.2,164.4,278.3,158.4z"/>
			<path class="st0" d="M352.5,216.6c0.9,0,1.8-0.1,2.7-0.4c5.2-1.5,8.2-6.9,6.7-12c-11.5-40.8-44-73.3-84.7-84.9
				c-5.2-1.5-10.6,1.5-12,6.7c-1.5,5.2,1.5,10.6,6.7,12c34.3,9.8,61.6,37.1,71.3,71.5C344.3,213.8,348.2,216.6,352.5,216.6z"/>
			<path class="st0" d="M272.9,73.9c-5.2-1.5-10.6,1.5-12.1,6.7c-1.5,5.2,1.5,10.6,6.7,12c58.1,16.5,104.4,62.9,120.8,121.1
				c1.2,4.3,5.1,7.1,9.4,7.1c0.9,0,1.8-0.1,2.7-0.4c5.2-1.5,8.2-6.9,6.7-12C388.9,143.8,337.5,92.3,272.9,73.9z"/>
		</g>
	</g>
</g>
</svg>
