<?xml version="1.0" encoding="utf-8"?>
<!-- Generator: Adobe Illustrator 19.0.1, SVG Export Plug-In . SVG Version: 6.00 Build 0)  -->
<svg version="1.1" id="Layer_1" xmlns="http://www.w3.org/2000/svg" xmlns:xlink="http://www.w3.org/1999/xlink" x="0px" y="0px"
	 viewBox="-153 244.6 304.4 304.4" style="enable-background:new -153 244.6 304.4 304.4;" xml:space="preserve">
<style type="text/css">
	.st0{fill:#DBBEB6;}
</style>
<g id="XMLID_1_">
	<path id="XMLID_807_" class="st0" d="M108.9,420.2c10.1,9.9,20.8,19.1,29.8,30c4,4.8,7.8,9.8,10.7,15.4c4.1,8,0.4,16.7-6.7,17.2
		l-44.3,0c-11.4,0.9-20.6-3.7-28.2-11.5c-6.1-6.3-11.8-12.9-17.7-19.4c-2.4-2.6-5-5.1-8-7.1c-6.1-3.9-11.3-2.7-14.8,3.6
		c-3.5,6.4-4.3,13.5-4.7,20.7c-0.5,10.4-3.6,13.2-14.1,13.7c-22.4,1.1-43.7-2.3-63.4-13.6c-17.4-10-30.9-24-42.7-40
		c-22.9-31-40.4-65.1-56.2-100.1c-3.5-7.9-1-12.1,7.8-12.3c14.5-0.3,28.9-0.3,43.4,0c5.9,0.1,9.8,3.5,12,9
		c7.8,19.2,17.4,37.6,29.4,54.5c3.2,4.5,6.5,9,11.1,12.2c5.1,3.5,9.1,2.4,11.5-3.4c1.5-3.6,2.2-7.5,2.6-11.4
		c1.1-13.4,1.3-26.7-0.7-40.1c-1.2-8.3-5.9-13.7-14.2-15.3c-4.2-0.8-3.6-2.4-1.6-4.8c3.6-4.2,6.9-6.8,13.6-6.8h50.1
		c7.9,1.6,9.6,5.1,10.7,13l0,55.7c-0.1,3.1,1.5,12.2,7.1,14.2c4.4,1.4,7.4-2.1,10-4.9c12-12.7,20.6-27.8,28.2-43.4
		c3.4-6.9,6.3-14,9.1-21.1c2.1-5.3,5.4-7.9,11.3-7.8l48.2,0c1.4,0,2.9,0,4.3,0.3c8.1,1.4,10.4,4.9,7.8,12.8
		c-4,12.5-11.6,22.8-19.2,33.3c-8,11.1-16.6,21.9-24.6,33.1C99.3,406.2,99.8,411.3,108.9,420.2L108.9,420.2z"/>
</g>
</svg>
