<?xml version="1.0" encoding="utf-8"?>
<!-- Generator: Adobe Illustrator 24.1.2, SVG Export Plug-In . SVG Version: 6.00 Build 0)  -->
<svg version="1.1" id="Capa_1" xmlns="http://www.w3.org/2000/svg" xmlns:xlink="http://www.w3.org/1999/xlink" x="0px" y="0px"
	 viewBox="0 0 512 512" style="enable-background:new 0 0 512 512;" xml:space="preserve">
<style type="text/css">
	.st0{fill:#FFFFFF;}
</style>
<g>
	<g>
		<g>
			<path class="st0" d="M256,0C114.8,0,0,114.8,0,256c0,48.2,13.4,94.9,38.8,135.5c-10.1,35.4-28.4,102.4-28.6,103.1
				c-0.9,3.5,0.1,7.2,2.7,9.7s6.3,3.4,9.7,2.3l101.5-31.2C163.8,499.4,209.3,512,256,512c141.2,0,256-114.8,256-256S397.2,0,256,0z
				 M256,492.3c-44.5,0-87.8-12.4-125.4-35.9c-1.6-1-3.4-1.5-5.2-1.5c-1,0-1.9,0.1-2.9,0.4l-88.6,27.3c6.5-23.8,18.2-66.3,25-89.9
				c0.8-2.7,0.3-5.7-1.2-8.1c-24.9-38.3-38-82.7-38-128.6c0-130.3,106-236.3,236.3-236.3s236.3,106,236.3,236.3
				S386.3,492.3,256,492.3z"/>
			<path class="st0" d="M423.2,316.3c-18.2-10.1-33.7-20.2-44.9-27.6c-8.6-5.6-14.9-9.7-19.4-12c-12.8-6.4-22.4-1.9-26.1,1.9
				c-0.5,0.5-0.9,1-1.2,1.5c-13.3,19.9-30.6,38.9-35.7,40c-5.9-0.9-33.3-16.5-60.5-39.2c-27.8-23.2-45.3-45.4-47.9-60.5
				c17.9-18.4,24.3-29.9,24.3-43.1c0-13.6-31.6-70.2-37.3-75.9c-5.7-5.7-18.7-6.6-38.4-2.7c-1.9,0.4-3.7,1.3-5,2.7
				c-2.4,2.4-58.4,59.5-31.8,128.6c29.2,75.9,104.2,164.2,199.7,178.5c10.9,1.6,21,2.4,30.6,2.4c56.2,0,89.4-28.3,98.7-84.4
				C428.9,322.4,426.9,318.3,423.2,316.3z M301.8,389C200.7,373.9,137,273.8,117.5,222.9c-19.4-50.4,16.4-95.4,25.4-105.5
				c7.3-1.2,15-1.8,18.2-1.3c6.7,9.3,29.9,53.2,30.9,61.1c0,5.2-1.7,12.4-21.7,32.4c-1.9,1.8-2.9,4.3-2.9,7
				c0,51.6,108.7,123.1,128,123.1c16.7,0,38.6-28.2,51-46.5c0.7,0,1.9,0.3,3.7,1.1c3.5,1.8,9.7,5.8,17.5,10.9
				c10.3,6.7,23.9,15.6,40,24.8C400.2,365.2,379.8,400.7,301.8,389z"/>
		</g>
	</g>
</g>
</svg>
